<?xml version="1.0" encoding="utf-8"?>
<!-- Generator: Adobe Illustrator 24.0.3, SVG Export Plug-In . SVG Version: 6.00 Build 0)  -->
<svg version="1.1" id="Layer_1" xmlns="http://www.w3.org/2000/svg" xmlns:xlink="http://www.w3.org/1999/xlink" x="0px" y="0px"
	 viewBox="0 0 310 588" style="enable-background:new 0 0 310 588;" xml:space="preserve">
<style type="text/css">
	.st0{fill:#FFFFFF;}
</style>
<g>
	<g>
		<circle class="st0" cx="5.09" cy="5.08" r="4.94"/>
	</g>
	<g>
		<circle class="st0" cx="26.48" cy="5.08" r="4.94"/>
	</g>
	<g>
		<circle class="st0" cx="47.87" cy="5.08" r="4.94"/>
	</g>
	<g>
		<circle class="st0" cx="69.27" cy="5.08" r="4.94"/>
	</g>
	<g>
		<circle class="st0" cx="90.66" cy="5.08" r="4.94"/>
	</g>
	<g>
		<circle class="st0" cx="112.05" cy="5.08" r="4.94"/>
	</g>
	<g>
		<circle class="st0" cx="133.44" cy="5.08" r="4.94"/>
	</g>
	<g>
		<circle class="st0" cx="154.84" cy="5.08" r="4.94"/>
	</g>
	<g>
		<circle class="st0" cx="176.23" cy="5.08" r="4.94"/>
	</g>
	<g>
		<circle class="st0" cx="197.62" cy="5.08" r="4.94"/>
	</g>
	<g>
		<circle class="st0" cx="219.02" cy="5.08" r="4.94"/>
	</g>
	<g>
		<circle class="st0" cx="240.41" cy="5.08" r="4.94"/>
	</g>
	<g>
		<circle class="st0" cx="261.8" cy="5.08" r="4.94"/>
	</g>
	<g>
		<circle class="st0" cx="283.19" cy="5.08" r="4.94"/>
	</g>
	<g>
		<circle class="st0" cx="304.59" cy="5.08" r="4.94"/>
	</g>
</g>
<g>
	<g>
		<circle class="st0" cx="5.09" cy="26.47" r="4.94"/>
	</g>
	<g>
		<circle class="st0" cx="26.48" cy="26.47" r="4.94"/>
	</g>
	<g>
		<circle class="st0" cx="47.87" cy="26.47" r="4.94"/>
	</g>
	<g>
		<circle class="st0" cx="69.27" cy="26.47" r="4.94"/>
	</g>
	<g>
		<circle class="st0" cx="90.66" cy="26.47" r="4.94"/>
	</g>
	<g>
		<circle class="st0" cx="112.05" cy="26.47" r="4.94"/>
	</g>
	<g>
		<circle class="st0" cx="133.44" cy="26.47" r="4.94"/>
	</g>
	<g>
		<circle class="st0" cx="154.84" cy="26.47" r="4.94"/>
	</g>
	<g>
		<circle class="st0" cx="176.23" cy="26.47" r="4.94"/>
	</g>
	<g>
		<circle class="st0" cx="197.62" cy="26.47" r="4.94"/>
	</g>
	<g>
		<circle class="st0" cx="219.02" cy="26.47" r="4.94"/>
	</g>
	<g>
		<circle class="st0" cx="240.41" cy="26.47" r="4.94"/>
	</g>
	<g>
		<circle class="st0" cx="261.8" cy="26.47" r="4.94"/>
	</g>
	<g>
		<circle class="st0" cx="283.19" cy="26.47" r="4.94"/>
	</g>
	<g>
		<circle class="st0" cx="304.59" cy="26.47" r="4.94"/>
	</g>
</g>
<g>
	<g>
		<circle class="st0" cx="5.09" cy="47.86" r="4.94"/>
	</g>
	<g>
		<circle class="st0" cx="26.48" cy="47.86" r="4.94"/>
	</g>
	<g>
		<circle class="st0" cx="47.87" cy="47.86" r="4.94"/>
	</g>
	<g>
		<circle class="st0" cx="69.27" cy="47.86" r="4.94"/>
	</g>
	<g>
		<circle class="st0" cx="90.66" cy="47.86" r="4.94"/>
	</g>
	<g>
		<circle class="st0" cx="112.05" cy="47.86" r="4.94"/>
	</g>
	<g>
		<circle class="st0" cx="133.44" cy="47.86" r="4.94"/>
	</g>
	<g>
		<circle class="st0" cx="154.84" cy="47.86" r="4.94"/>
	</g>
	<g>
		<circle class="st0" cx="176.23" cy="47.86" r="4.94"/>
	</g>
	<g>
		<circle class="st0" cx="197.62" cy="47.86" r="4.94"/>
	</g>
	<g>
		<circle class="st0" cx="219.02" cy="47.86" r="4.94"/>
	</g>
	<g>
		<circle class="st0" cx="240.41" cy="47.86" r="4.94"/>
	</g>
	<g>
		<circle class="st0" cx="261.8" cy="47.86" r="4.94"/>
	</g>
	<g>
		<circle class="st0" cx="283.19" cy="47.86" r="4.94"/>
	</g>
	<g>
		<circle class="st0" cx="304.59" cy="47.86" r="4.94"/>
	</g>
</g>
<g>
	<g>
		<circle class="st0" cx="5.09" cy="69.25" r="4.94"/>
	</g>
	<g>
		<circle class="st0" cx="26.48" cy="69.25" r="4.94"/>
	</g>
	<g>
		<circle class="st0" cx="47.87" cy="69.25" r="4.94"/>
	</g>
	<g>
		<circle class="st0" cx="69.27" cy="69.25" r="4.94"/>
	</g>
	<g>
		<circle class="st0" cx="90.66" cy="69.25" r="4.94"/>
	</g>
	<g>
		<circle class="st0" cx="112.05" cy="69.25" r="4.94"/>
	</g>
	<g>
		<circle class="st0" cx="133.44" cy="69.25" r="4.94"/>
	</g>
	<g>
		<circle class="st0" cx="154.84" cy="69.25" r="4.94"/>
	</g>
	<g>
		<circle class="st0" cx="176.23" cy="69.25" r="4.94"/>
	</g>
	<g>
		<circle class="st0" cx="197.62" cy="69.25" r="4.94"/>
	</g>
	<g>
		<circle class="st0" cx="219.02" cy="69.25" r="4.94"/>
	</g>
	<g>
		<circle class="st0" cx="240.41" cy="69.25" r="4.94"/>
	</g>
	<g>
		<circle class="st0" cx="261.8" cy="69.25" r="4.94"/>
	</g>
	<g>
		<circle class="st0" cx="283.19" cy="69.25" r="4.94"/>
	</g>
	<g>
		<circle class="st0" cx="304.59" cy="69.25" r="4.94"/>
	</g>
</g>
<g>
	<g>
		<circle class="st0" cx="5.09" cy="90.65" r="4.94"/>
	</g>
	<g>
		<circle class="st0" cx="26.48" cy="90.65" r="4.94"/>
	</g>
	<g>
		<circle class="st0" cx="47.87" cy="90.65" r="4.94"/>
	</g>
	<g>
		<circle class="st0" cx="69.27" cy="90.65" r="4.94"/>
	</g>
	<g>
		<circle class="st0" cx="90.66" cy="90.65" r="4.94"/>
	</g>
	<g>
		<circle class="st0" cx="112.05" cy="90.65" r="4.94"/>
	</g>
	<g>
		<circle class="st0" cx="133.44" cy="90.65" r="4.94"/>
	</g>
	<g>
		<circle class="st0" cx="154.84" cy="90.65" r="4.94"/>
	</g>
	<g>
		<circle class="st0" cx="176.23" cy="90.65" r="4.94"/>
	</g>
	<g>
		<circle class="st0" cx="197.62" cy="90.65" r="4.94"/>
	</g>
	<g>
		<circle class="st0" cx="219.02" cy="90.65" r="4.94"/>
	</g>
	<g>
		<circle class="st0" cx="240.41" cy="90.65" r="4.94"/>
	</g>
	<g>
		<circle class="st0" cx="261.8" cy="90.65" r="4.94"/>
	</g>
	<g>
		<circle class="st0" cx="283.19" cy="90.65" r="4.94"/>
	</g>
	<g>
		<circle class="st0" cx="304.59" cy="90.65" r="4.94"/>
	</g>
</g>
<g>
	<g>
		<circle class="st0" cx="5.09" cy="112.04" r="4.94"/>
	</g>
	<g>
		<circle class="st0" cx="26.48" cy="112.04" r="4.94"/>
	</g>
	<g>
		<circle class="st0" cx="47.87" cy="112.04" r="4.94"/>
	</g>
	<g>
		<circle class="st0" cx="69.27" cy="112.04" r="4.94"/>
	</g>
	<g>
		<circle class="st0" cx="90.66" cy="112.04" r="4.94"/>
	</g>
	<g>
		<circle class="st0" cx="112.05" cy="112.04" r="4.94"/>
	</g>
	<g>
		<circle class="st0" cx="133.44" cy="112.04" r="4.94"/>
	</g>
	<g>
		<circle class="st0" cx="154.84" cy="112.04" r="4.94"/>
	</g>
	<g>
		<circle class="st0" cx="176.23" cy="112.04" r="4.94"/>
	</g>
	<g>
		<circle class="st0" cx="197.62" cy="112.04" r="4.94"/>
	</g>
	<g>
		<circle class="st0" cx="219.02" cy="112.04" r="4.94"/>
	</g>
	<g>
		<circle class="st0" cx="240.41" cy="112.04" r="4.94"/>
	</g>
	<g>
		<circle class="st0" cx="261.8" cy="112.04" r="4.94"/>
	</g>
	<g>
		<circle class="st0" cx="283.19" cy="112.04" r="4.94"/>
	</g>
	<g>
		<circle class="st0" cx="304.59" cy="112.04" r="4.94"/>
	</g>
</g>
<g>
	<g>
		<circle class="st0" cx="5.09" cy="133.43" r="4.94"/>
	</g>
	<g>
		<circle class="st0" cx="26.48" cy="133.43" r="4.94"/>
	</g>
	<g>
		<circle class="st0" cx="47.87" cy="133.43" r="4.94"/>
	</g>
	<g>
		<circle class="st0" cx="69.27" cy="133.43" r="4.94"/>
	</g>
	<g>
		<circle class="st0" cx="90.66" cy="133.43" r="4.94"/>
	</g>
	<g>
		<circle class="st0" cx="112.05" cy="133.43" r="4.94"/>
	</g>
	<g>
		<circle class="st0" cx="133.44" cy="133.43" r="4.94"/>
	</g>
	<g>
		<circle class="st0" cx="154.84" cy="133.43" r="4.94"/>
	</g>
	<g>
		<circle class="st0" cx="176.23" cy="133.43" r="4.94"/>
	</g>
	<g>
		<circle class="st0" cx="197.62" cy="133.43" r="4.94"/>
	</g>
	<g>
		<circle class="st0" cx="219.02" cy="133.43" r="4.94"/>
	</g>
	<g>
		<circle class="st0" cx="240.41" cy="133.43" r="4.94"/>
	</g>
	<g>
		<circle class="st0" cx="261.8" cy="133.43" r="4.94"/>
	</g>
	<g>
		<circle class="st0" cx="283.19" cy="133.43" r="4.94"/>
	</g>
	<g>
		<circle class="st0" cx="304.59" cy="133.43" r="4.94"/>
	</g>
</g>
<g>
	<g>
		<circle class="st0" cx="5.09" cy="154.83" r="4.94"/>
	</g>
	<g>
		<circle class="st0" cx="26.48" cy="154.83" r="4.94"/>
	</g>
	<g>
		<circle class="st0" cx="47.87" cy="154.83" r="4.94"/>
	</g>
	<g>
		<circle class="st0" cx="69.27" cy="154.83" r="4.94"/>
	</g>
	<g>
		<circle class="st0" cx="90.66" cy="154.83" r="4.94"/>
	</g>
	<g>
		<circle class="st0" cx="112.05" cy="154.83" r="4.94"/>
	</g>
	<g>
		<circle class="st0" cx="133.44" cy="154.83" r="4.94"/>
	</g>
	<g>
		<circle class="st0" cx="154.84" cy="154.83" r="4.94"/>
	</g>
	<g>
		<circle class="st0" cx="176.23" cy="154.83" r="4.94"/>
	</g>
	<g>
		<circle class="st0" cx="197.62" cy="154.83" r="4.94"/>
	</g>
	<g>
		<circle class="st0" cx="219.02" cy="154.83" r="4.94"/>
	</g>
	<g>
		<circle class="st0" cx="240.41" cy="154.83" r="4.94"/>
	</g>
	<g>
		<circle class="st0" cx="261.8" cy="154.83" r="4.94"/>
	</g>
	<g>
		<circle class="st0" cx="283.19" cy="154.83" r="4.94"/>
	</g>
	<g>
		<circle class="st0" cx="304.59" cy="154.83" r="4.94"/>
	</g>
</g>
<g>
	<g>
		<circle class="st0" cx="5.09" cy="176.22" r="4.94"/>
	</g>
	<g>
		<circle class="st0" cx="26.48" cy="176.22" r="4.94"/>
	</g>
	<g>
		<circle class="st0" cx="47.87" cy="176.22" r="4.94"/>
	</g>
	<g>
		<circle class="st0" cx="69.27" cy="176.22" r="4.94"/>
	</g>
	<g>
		<circle class="st0" cx="90.66" cy="176.22" r="4.94"/>
	</g>
	<g>
		<circle class="st0" cx="112.05" cy="176.22" r="4.94"/>
	</g>
	<g>
		<circle class="st0" cx="133.44" cy="176.22" r="4.94"/>
	</g>
	<g>
		<circle class="st0" cx="154.84" cy="176.22" r="4.94"/>
	</g>
	<g>
		<circle class="st0" cx="176.23" cy="176.22" r="4.94"/>
	</g>
	<g>
		<circle class="st0" cx="197.62" cy="176.22" r="4.94"/>
	</g>
	<g>
		<circle class="st0" cx="219.02" cy="176.22" r="4.94"/>
	</g>
	<g>
		<circle class="st0" cx="240.41" cy="176.22" r="4.94"/>
	</g>
	<g>
		<circle class="st0" cx="261.8" cy="176.22" r="4.94"/>
	</g>
	<g>
		<circle class="st0" cx="283.19" cy="176.22" r="4.94"/>
	</g>
	<g>
		<circle class="st0" cx="304.59" cy="176.22" r="4.94"/>
	</g>
</g>
<g>
	<g>
		<circle class="st0" cx="5.09" cy="197.61" r="4.94"/>
	</g>
	<g>
		<circle class="st0" cx="26.48" cy="197.61" r="4.94"/>
	</g>
	<g>
		<circle class="st0" cx="47.87" cy="197.61" r="4.94"/>
	</g>
	<g>
		<circle class="st0" cx="69.27" cy="197.61" r="4.94"/>
	</g>
	<g>
		<circle class="st0" cx="90.66" cy="197.61" r="4.94"/>
	</g>
	<g>
		<circle class="st0" cx="112.05" cy="197.61" r="4.94"/>
	</g>
	<g>
		<circle class="st0" cx="133.44" cy="197.61" r="4.94"/>
	</g>
	<g>
		<circle class="st0" cx="154.84" cy="197.61" r="4.94"/>
	</g>
	<g>
		<circle class="st0" cx="176.23" cy="197.61" r="4.94"/>
	</g>
	<g>
		<circle class="st0" cx="197.62" cy="197.61" r="4.94"/>
	</g>
	<g>
		<circle class="st0" cx="219.02" cy="197.61" r="4.94"/>
	</g>
	<g>
		<circle class="st0" cx="240.41" cy="197.61" r="4.94"/>
	</g>
	<g>
		<circle class="st0" cx="261.8" cy="197.61" r="4.94"/>
	</g>
	<g>
		<circle class="st0" cx="283.19" cy="197.61" r="4.94"/>
	</g>
	<g>
		<circle class="st0" cx="304.59" cy="197.61" r="4.94"/>
	</g>
</g>
<g>
	<g>
		<circle class="st0" cx="5.09" cy="219" r="4.94"/>
	</g>
	<g>
		<circle class="st0" cx="26.48" cy="219" r="4.94"/>
	</g>
	<g>
		<circle class="st0" cx="47.87" cy="219" r="4.94"/>
	</g>
	<g>
		<circle class="st0" cx="69.27" cy="219" r="4.94"/>
	</g>
	<g>
		<circle class="st0" cx="90.66" cy="219" r="4.94"/>
	</g>
	<g>
		<circle class="st0" cx="112.05" cy="219" r="4.94"/>
	</g>
	<g>
		<circle class="st0" cx="133.44" cy="219" r="4.94"/>
	</g>
	<g>
		<circle class="st0" cx="154.84" cy="219" r="4.94"/>
	</g>
	<g>
		<circle class="st0" cx="176.23" cy="219" r="4.94"/>
	</g>
	<g>
		<circle class="st0" cx="197.62" cy="219" r="4.94"/>
	</g>
	<g>
		<circle class="st0" cx="219.02" cy="219" r="4.94"/>
	</g>
	<g>
		<circle class="st0" cx="240.41" cy="219" r="4.94"/>
	</g>
	<g>
		<circle class="st0" cx="261.8" cy="219" r="4.94"/>
	</g>
	<g>
		<circle class="st0" cx="283.19" cy="219" r="4.94"/>
	</g>
	<g>
		<circle class="st0" cx="304.59" cy="219" r="4.94"/>
	</g>
</g>
<g>
	<g>
		<circle class="st0" cx="5.09" cy="240.4" r="4.94"/>
	</g>
	<g>
		<circle class="st0" cx="26.48" cy="240.4" r="4.94"/>
	</g>
	<g>
		<circle class="st0" cx="47.87" cy="240.4" r="4.94"/>
	</g>
	<g>
		<circle class="st0" cx="69.27" cy="240.4" r="4.94"/>
	</g>
	<g>
		<circle class="st0" cx="90.66" cy="240.4" r="4.94"/>
	</g>
	<g>
		<circle class="st0" cx="112.05" cy="240.4" r="4.94"/>
	</g>
	<g>
		<circle class="st0" cx="133.44" cy="240.4" r="4.94"/>
	</g>
	<g>
		<circle class="st0" cx="154.84" cy="240.4" r="4.94"/>
	</g>
	<g>
		<circle class="st0" cx="176.23" cy="240.4" r="4.94"/>
	</g>
	<g>
		<circle class="st0" cx="197.62" cy="240.4" r="4.94"/>
	</g>
	<g>
		<circle class="st0" cx="219.02" cy="240.4" r="4.94"/>
	</g>
	<g>
		<circle class="st0" cx="240.41" cy="240.4" r="4.94"/>
	</g>
	<g>
		<circle class="st0" cx="261.8" cy="240.4" r="4.94"/>
	</g>
	<g>
		<circle class="st0" cx="283.19" cy="240.4" r="4.94"/>
	</g>
	<g>
		<circle class="st0" cx="304.59" cy="240.4" r="4.94"/>
	</g>
</g>
<g>
	<g>
		<circle class="st0" cx="5.09" cy="261.79" r="4.94"/>
	</g>
	<g>
		<circle class="st0" cx="26.48" cy="261.79" r="4.94"/>
	</g>
	<g>
		<circle class="st0" cx="47.87" cy="261.79" r="4.94"/>
	</g>
	<g>
		<circle class="st0" cx="69.27" cy="261.79" r="4.94"/>
	</g>
	<g>
		<circle class="st0" cx="90.66" cy="261.79" r="4.94"/>
	</g>
	<g>
		<circle class="st0" cx="112.05" cy="261.79" r="4.94"/>
	</g>
	<g>
		<circle class="st0" cx="133.44" cy="261.79" r="4.94"/>
	</g>
	<g>
		<circle class="st0" cx="154.84" cy="261.79" r="4.94"/>
	</g>
	<g>
		<circle class="st0" cx="176.23" cy="261.79" r="4.94"/>
	</g>
	<g>
		<circle class="st0" cx="197.62" cy="261.79" r="4.94"/>
	</g>
	<g>
		<circle class="st0" cx="219.02" cy="261.79" r="4.94"/>
	</g>
	<g>
		<circle class="st0" cx="240.41" cy="261.79" r="4.94"/>
	</g>
	<g>
		<circle class="st0" cx="261.8" cy="261.79" r="4.94"/>
	</g>
	<g>
		<circle class="st0" cx="283.19" cy="261.79" r="4.94"/>
	</g>
	<g>
		<circle class="st0" cx="304.59" cy="261.79" r="4.94"/>
	</g>
</g>
<g>
	<g>
		<circle class="st0" cx="5.09" cy="283.18" r="4.94"/>
	</g>
	<g>
		<circle class="st0" cx="26.48" cy="283.18" r="4.94"/>
	</g>
	<g>
		<circle class="st0" cx="47.87" cy="283.18" r="4.94"/>
	</g>
	<g>
		<circle class="st0" cx="69.27" cy="283.18" r="4.94"/>
	</g>
	<g>
		<circle class="st0" cx="90.66" cy="283.18" r="4.94"/>
	</g>
	<g>
		<circle class="st0" cx="112.05" cy="283.18" r="4.94"/>
	</g>
	<g>
		<circle class="st0" cx="133.44" cy="283.18" r="4.94"/>
	</g>
	<g>
		<circle class="st0" cx="154.84" cy="283.18" r="4.94"/>
	</g>
	<g>
		<circle class="st0" cx="176.23" cy="283.18" r="4.94"/>
	</g>
	<g>
		<circle class="st0" cx="197.62" cy="283.18" r="4.94"/>
	</g>
	<g>
		<circle class="st0" cx="219.02" cy="283.18" r="4.94"/>
	</g>
	<g>
		<circle class="st0" cx="240.41" cy="283.18" r="4.94"/>
	</g>
	<g>
		<circle class="st0" cx="261.8" cy="283.18" r="4.94"/>
	</g>
	<g>
		<circle class="st0" cx="283.19" cy="283.18" r="4.94"/>
	</g>
	<g>
		<circle class="st0" cx="304.59" cy="283.18" r="4.94"/>
	</g>
</g>
<g>
	<g>
		<circle class="st0" cx="5.09" cy="304.58" r="4.94"/>
	</g>
	<g>
		<circle class="st0" cx="26.48" cy="304.58" r="4.94"/>
	</g>
	<g>
		<circle class="st0" cx="47.87" cy="304.58" r="4.94"/>
	</g>
	<g>
		<circle class="st0" cx="69.27" cy="304.58" r="4.94"/>
	</g>
	<g>
		<circle class="st0" cx="90.66" cy="304.58" r="4.94"/>
	</g>
	<g>
		<circle class="st0" cx="112.05" cy="304.58" r="4.94"/>
	</g>
	<g>
		<circle class="st0" cx="133.44" cy="304.58" r="4.94"/>
	</g>
	<g>
		<circle class="st0" cx="154.84" cy="304.58" r="4.94"/>
	</g>
	<g>
		<circle class="st0" cx="176.23" cy="304.58" r="4.94"/>
	</g>
	<g>
		<circle class="st0" cx="197.62" cy="304.58" r="4.94"/>
	</g>
	<g>
		<circle class="st0" cx="219.02" cy="304.58" r="4.94"/>
	</g>
	<g>
		<circle class="st0" cx="240.41" cy="304.58" r="4.94"/>
	</g>
	<g>
		<circle class="st0" cx="261.8" cy="304.58" r="4.94"/>
	</g>
	<g>
		<circle class="st0" cx="283.19" cy="304.58" r="4.94"/>
	</g>
	<g>
		<circle class="st0" cx="304.59" cy="304.58" r="4.94"/>
	</g>
</g>
<g>
	<g>
		<circle class="st0" cx="5.09" cy="325.97" r="4.94"/>
	</g>
	<g>
		<circle class="st0" cx="26.48" cy="325.97" r="4.94"/>
	</g>
	<g>
		<circle class="st0" cx="47.87" cy="325.97" r="4.94"/>
	</g>
	<g>
		<circle class="st0" cx="69.27" cy="325.97" r="4.94"/>
	</g>
	<g>
		<circle class="st0" cx="90.66" cy="325.97" r="4.94"/>
	</g>
	<g>
		<circle class="st0" cx="112.05" cy="325.97" r="4.94"/>
	</g>
	<g>
		<circle class="st0" cx="133.44" cy="325.97" r="4.94"/>
	</g>
	<g>
		<circle class="st0" cx="154.84" cy="325.97" r="4.94"/>
	</g>
	<g>
		<circle class="st0" cx="176.23" cy="325.97" r="4.94"/>
	</g>
	<g>
		<circle class="st0" cx="197.62" cy="325.97" r="4.94"/>
	</g>
	<g>
		<circle class="st0" cx="219.02" cy="325.97" r="4.94"/>
	</g>
	<g>
		<circle class="st0" cx="240.41" cy="325.97" r="4.94"/>
	</g>
	<g>
		<circle class="st0" cx="261.8" cy="325.97" r="4.94"/>
	</g>
	<g>
		<circle class="st0" cx="283.19" cy="325.97" r="4.94"/>
	</g>
	<g>
		<circle class="st0" cx="304.59" cy="325.97" r="4.94"/>
	</g>
</g>
<g>
	<g>
		<circle class="st0" cx="5.09" cy="347.36" r="4.94"/>
	</g>
	<g>
		<circle class="st0" cx="26.48" cy="347.36" r="4.94"/>
	</g>
	<g>
		<circle class="st0" cx="47.87" cy="347.36" r="4.94"/>
	</g>
	<g>
		<circle class="st0" cx="69.27" cy="347.36" r="4.94"/>
	</g>
	<g>
		<circle class="st0" cx="90.66" cy="347.36" r="4.94"/>
	</g>
	<g>
		<circle class="st0" cx="112.05" cy="347.36" r="4.94"/>
	</g>
	<g>
		<circle class="st0" cx="133.44" cy="347.36" r="4.94"/>
	</g>
	<g>
		<circle class="st0" cx="154.84" cy="347.36" r="4.94"/>
	</g>
	<g>
		<circle class="st0" cx="176.23" cy="347.36" r="4.94"/>
	</g>
	<g>
		<circle class="st0" cx="197.62" cy="347.36" r="4.94"/>
	</g>
	<g>
		<circle class="st0" cx="219.02" cy="347.36" r="4.94"/>
	</g>
	<g>
		<circle class="st0" cx="240.41" cy="347.36" r="4.94"/>
	</g>
	<g>
		<circle class="st0" cx="261.8" cy="347.36" r="4.94"/>
	</g>
	<g>
		<circle class="st0" cx="283.19" cy="347.36" r="4.94"/>
	</g>
	<g>
		<circle class="st0" cx="304.59" cy="347.36" r="4.94"/>
	</g>
</g>
<g>
	<g>
		<circle class="st0" cx="5.09" cy="368.75" r="4.94"/>
	</g>
	<g>
		<circle class="st0" cx="26.48" cy="368.75" r="4.94"/>
	</g>
	<g>
		<circle class="st0" cx="47.87" cy="368.75" r="4.94"/>
	</g>
	<g>
		<circle class="st0" cx="69.27" cy="368.75" r="4.94"/>
	</g>
	<g>
		<circle class="st0" cx="90.66" cy="368.75" r="4.94"/>
	</g>
	<g>
		<circle class="st0" cx="112.05" cy="368.75" r="4.94"/>
	</g>
	<g>
		<circle class="st0" cx="133.44" cy="368.75" r="4.94"/>
	</g>
	<g>
		<circle class="st0" cx="154.84" cy="368.75" r="4.94"/>
	</g>
	<g>
		<circle class="st0" cx="176.23" cy="368.75" r="4.94"/>
	</g>
	<g>
		<circle class="st0" cx="197.62" cy="368.75" r="4.94"/>
	</g>
	<g>
		<circle class="st0" cx="219.02" cy="368.75" r="4.94"/>
	</g>
	<g>
		<circle class="st0" cx="240.41" cy="368.75" r="4.94"/>
	</g>
	<g>
		<circle class="st0" cx="261.8" cy="368.75" r="4.94"/>
	</g>
	<g>
		<circle class="st0" cx="283.19" cy="368.75" r="4.94"/>
	</g>
	<g>
		<circle class="st0" cx="304.59" cy="368.75" r="4.94"/>
	</g>
</g>
<g>
	<g>
		<circle class="st0" cx="5.09" cy="390.15" r="4.94"/>
	</g>
	<g>
		<circle class="st0" cx="26.48" cy="390.15" r="4.94"/>
	</g>
	<g>
		<circle class="st0" cx="47.87" cy="390.15" r="4.94"/>
	</g>
	<g>
		<circle class="st0" cx="69.27" cy="390.15" r="4.94"/>
	</g>
	<g>
		<circle class="st0" cx="90.66" cy="390.15" r="4.94"/>
	</g>
	<g>
		<circle class="st0" cx="112.05" cy="390.15" r="4.94"/>
	</g>
	<g>
		<circle class="st0" cx="133.44" cy="390.15" r="4.94"/>
	</g>
	<g>
		<circle class="st0" cx="154.84" cy="390.15" r="4.94"/>
	</g>
	<g>
		<circle class="st0" cx="176.23" cy="390.15" r="4.94"/>
	</g>
	<g>
		<circle class="st0" cx="197.62" cy="390.15" r="4.94"/>
	</g>
	<g>
		<circle class="st0" cx="219.02" cy="390.15" r="4.94"/>
	</g>
	<g>
		<circle class="st0" cx="240.41" cy="390.15" r="4.94"/>
	</g>
	<g>
		<circle class="st0" cx="261.8" cy="390.15" r="4.94"/>
	</g>
	<g>
		<circle class="st0" cx="283.19" cy="390.15" r="4.94"/>
	</g>
	<g>
		<circle class="st0" cx="304.59" cy="390.15" r="4.94"/>
	</g>
</g>
<g>
	<g>
		<circle class="st0" cx="5.09" cy="411.54" r="4.94"/>
	</g>
	<g>
		<circle class="st0" cx="26.48" cy="411.54" r="4.94"/>
	</g>
	<g>
		<circle class="st0" cx="47.87" cy="411.54" r="4.94"/>
	</g>
	<g>
		<circle class="st0" cx="69.27" cy="411.54" r="4.94"/>
	</g>
	<g>
		<circle class="st0" cx="90.66" cy="411.54" r="4.94"/>
	</g>
	<g>
		<circle class="st0" cx="112.05" cy="411.54" r="4.94"/>
	</g>
	<g>
		<circle class="st0" cx="133.44" cy="411.54" r="4.94"/>
	</g>
	<g>
		<circle class="st0" cx="154.84" cy="411.54" r="4.94"/>
	</g>
	<g>
		<circle class="st0" cx="176.23" cy="411.54" r="4.94"/>
	</g>
	<g>
		<circle class="st0" cx="197.62" cy="411.54" r="4.94"/>
	</g>
	<g>
		<circle class="st0" cx="219.02" cy="411.54" r="4.94"/>
	</g>
	<g>
		<circle class="st0" cx="240.41" cy="411.54" r="4.94"/>
	</g>
	<g>
		<circle class="st0" cx="261.8" cy="411.54" r="4.94"/>
	</g>
	<g>
		<circle class="st0" cx="283.19" cy="411.54" r="4.94"/>
	</g>
	<g>
		<circle class="st0" cx="304.59" cy="411.54" r="4.94"/>
	</g>
</g>
<g>
	<g>
		<circle class="st0" cx="5.09" cy="432.93" r="4.94"/>
	</g>
	<g>
		<circle class="st0" cx="26.48" cy="432.93" r="4.94"/>
	</g>
	<g>
		<circle class="st0" cx="47.87" cy="432.93" r="4.94"/>
	</g>
	<g>
		<circle class="st0" cx="69.27" cy="432.93" r="4.94"/>
	</g>
	<g>
		<circle class="st0" cx="90.66" cy="432.93" r="4.94"/>
	</g>
	<g>
		<circle class="st0" cx="112.05" cy="432.93" r="4.94"/>
	</g>
	<g>
		<circle class="st0" cx="133.44" cy="432.93" r="4.94"/>
	</g>
	<g>
		<circle class="st0" cx="154.84" cy="432.93" r="4.94"/>
	</g>
	<g>
		<circle class="st0" cx="176.23" cy="432.93" r="4.94"/>
	</g>
	<g>
		<circle class="st0" cx="197.62" cy="432.93" r="4.94"/>
	</g>
	<g>
		<circle class="st0" cx="219.02" cy="432.93" r="4.94"/>
	</g>
	<g>
		<circle class="st0" cx="240.41" cy="432.93" r="4.94"/>
	</g>
	<g>
		<circle class="st0" cx="261.8" cy="432.93" r="4.94"/>
	</g>
	<g>
		<circle class="st0" cx="283.19" cy="432.93" r="4.94"/>
	</g>
	<g>
		<circle class="st0" cx="304.59" cy="432.93" r="4.94"/>
	</g>
</g>
<g>
	<g>
		<circle class="st0" cx="5.09" cy="454.33" r="4.94"/>
	</g>
	<g>
		<circle class="st0" cx="26.48" cy="454.33" r="4.94"/>
	</g>
	<g>
		<circle class="st0" cx="47.87" cy="454.33" r="4.94"/>
	</g>
	<g>
		<circle class="st0" cx="69.27" cy="454.33" r="4.94"/>
	</g>
	<g>
		<circle class="st0" cx="90.66" cy="454.33" r="4.94"/>
	</g>
	<g>
		<circle class="st0" cx="112.05" cy="454.33" r="4.94"/>
	</g>
	<g>
		<circle class="st0" cx="133.44" cy="454.33" r="4.94"/>
	</g>
	<g>
		<circle class="st0" cx="154.84" cy="454.33" r="4.94"/>
	</g>
	<g>
		<circle class="st0" cx="176.23" cy="454.33" r="4.94"/>
	</g>
	<g>
		<circle class="st0" cx="197.62" cy="454.33" r="4.94"/>
	</g>
	<g>
		<circle class="st0" cx="219.02" cy="454.33" r="4.94"/>
	</g>
	<g>
		<circle class="st0" cx="240.41" cy="454.33" r="4.94"/>
	</g>
	<g>
		<circle class="st0" cx="261.8" cy="454.33" r="4.94"/>
	</g>
	<g>
		<circle class="st0" cx="283.19" cy="454.33" r="4.94"/>
	</g>
	<g>
		<circle class="st0" cx="304.59" cy="454.33" r="4.94"/>
	</g>
</g>
<g>
	<g>
		<circle class="st0" cx="5.09" cy="475.72" r="4.94"/>
	</g>
	<g>
		<circle class="st0" cx="26.48" cy="475.72" r="4.94"/>
	</g>
	<g>
		<circle class="st0" cx="47.87" cy="475.72" r="4.94"/>
	</g>
	<g>
		<circle class="st0" cx="69.27" cy="475.72" r="4.94"/>
	</g>
	<g>
		<circle class="st0" cx="90.66" cy="475.72" r="4.94"/>
	</g>
	<g>
		<circle class="st0" cx="112.05" cy="475.72" r="4.94"/>
	</g>
	<g>
		<circle class="st0" cx="133.44" cy="475.72" r="4.94"/>
	</g>
	<g>
		<circle class="st0" cx="154.84" cy="475.72" r="4.94"/>
	</g>
	<g>
		<circle class="st0" cx="176.23" cy="475.72" r="4.94"/>
	</g>
	<g>
		<circle class="st0" cx="197.62" cy="475.72" r="4.94"/>
	</g>
	<g>
		<circle class="st0" cx="219.02" cy="475.72" r="4.94"/>
	</g>
	<g>
		<circle class="st0" cx="240.41" cy="475.72" r="4.94"/>
	</g>
	<g>
		<circle class="st0" cx="261.8" cy="475.72" r="4.94"/>
	</g>
	<g>
		<circle class="st0" cx="283.19" cy="475.72" r="4.94"/>
	</g>
	<g>
		<circle class="st0" cx="304.59" cy="475.72" r="4.94"/>
	</g>
</g>
<g>
	<g>
		<circle class="st0" cx="5.09" cy="497.11" r="4.94"/>
	</g>
	<g>
		<circle class="st0" cx="26.48" cy="497.11" r="4.94"/>
	</g>
	<g>
		<circle class="st0" cx="47.87" cy="497.11" r="4.94"/>
	</g>
	<g>
		<circle class="st0" cx="69.27" cy="497.11" r="4.94"/>
	</g>
	<g>
		<circle class="st0" cx="90.66" cy="497.11" r="4.94"/>
	</g>
	<g>
		<circle class="st0" cx="112.05" cy="497.11" r="4.94"/>
	</g>
	<g>
		<circle class="st0" cx="133.44" cy="497.11" r="4.94"/>
	</g>
	<g>
		<circle class="st0" cx="154.84" cy="497.11" r="4.94"/>
	</g>
	<g>
		<circle class="st0" cx="176.23" cy="497.11" r="4.94"/>
	</g>
	<g>
		<circle class="st0" cx="197.62" cy="497.11" r="4.94"/>
	</g>
	<g>
		<circle class="st0" cx="219.02" cy="497.11" r="4.94"/>
	</g>
	<g>
		<circle class="st0" cx="240.41" cy="497.11" r="4.94"/>
	</g>
	<g>
		<circle class="st0" cx="261.8" cy="497.11" r="4.94"/>
	</g>
	<g>
		<circle class="st0" cx="283.19" cy="497.11" r="4.94"/>
	</g>
	<g>
		<circle class="st0" cx="304.59" cy="497.11" r="4.94"/>
	</g>
</g>
<g>
	<g>
		<circle class="st0" cx="5.09" cy="518.5" r="4.94"/>
	</g>
	<g>
		<circle class="st0" cx="26.48" cy="518.5" r="4.94"/>
	</g>
	<g>
		<circle class="st0" cx="47.87" cy="518.5" r="4.94"/>
	</g>
	<g>
		<circle class="st0" cx="69.27" cy="518.5" r="4.94"/>
	</g>
	<g>
		<circle class="st0" cx="90.66" cy="518.5" r="4.94"/>
	</g>
	<g>
		<circle class="st0" cx="112.05" cy="518.5" r="4.94"/>
	</g>
	<g>
		<circle class="st0" cx="133.44" cy="518.5" r="4.94"/>
	</g>
	<g>
		<circle class="st0" cx="154.84" cy="518.5" r="4.94"/>
	</g>
	<g>
		<circle class="st0" cx="176.23" cy="518.5" r="4.94"/>
	</g>
	<g>
		<circle class="st0" cx="197.62" cy="518.5" r="4.94"/>
	</g>
	<g>
		<circle class="st0" cx="219.02" cy="518.5" r="4.94"/>
	</g>
	<g>
		<circle class="st0" cx="240.41" cy="518.5" r="4.94"/>
	</g>
	<g>
		<circle class="st0" cx="261.8" cy="518.5" r="4.94"/>
	</g>
	<g>
		<circle class="st0" cx="283.19" cy="518.5" r="4.94"/>
	</g>
	<g>
		<circle class="st0" cx="304.59" cy="518.5" r="4.94"/>
	</g>
</g>
<g>
	<g>
		<circle class="st0" cx="5.09" cy="539.9" r="4.94"/>
	</g>
	<g>
		<circle class="st0" cx="26.48" cy="539.9" r="4.94"/>
	</g>
	<g>
		<circle class="st0" cx="47.87" cy="539.9" r="4.94"/>
	</g>
	<g>
		<circle class="st0" cx="69.27" cy="539.9" r="4.94"/>
	</g>
	<g>
		<circle class="st0" cx="90.66" cy="539.9" r="4.94"/>
	</g>
	<g>
		<circle class="st0" cx="112.05" cy="539.9" r="4.94"/>
	</g>
	<g>
		<circle class="st0" cx="133.44" cy="539.9" r="4.94"/>
	</g>
	<g>
		<circle class="st0" cx="154.84" cy="539.9" r="4.94"/>
	</g>
	<g>
		<circle class="st0" cx="176.23" cy="539.9" r="4.94"/>
	</g>
	<g>
		<circle class="st0" cx="197.62" cy="539.9" r="4.94"/>
	</g>
	<g>
		<circle class="st0" cx="219.02" cy="539.9" r="4.94"/>
	</g>
	<g>
		<circle class="st0" cx="240.41" cy="539.9" r="4.94"/>
	</g>
	<g>
		<circle class="st0" cx="261.8" cy="539.9" r="4.94"/>
	</g>
	<g>
		<circle class="st0" cx="283.19" cy="539.9" r="4.94"/>
	</g>
	<g>
		<circle class="st0" cx="304.59" cy="539.9" r="4.94"/>
	</g>
</g>
<g>
	<g>
		<circle class="st0" cx="5.09" cy="561.29" r="4.94"/>
	</g>
	<g>
		<circle class="st0" cx="26.48" cy="561.29" r="4.94"/>
	</g>
	<g>
		<circle class="st0" cx="47.87" cy="561.29" r="4.94"/>
	</g>
	<g>
		<circle class="st0" cx="69.27" cy="561.29" r="4.94"/>
	</g>
	<g>
		<circle class="st0" cx="90.66" cy="561.29" r="4.94"/>
	</g>
	<g>
		<circle class="st0" cx="112.05" cy="561.29" r="4.94"/>
	</g>
	<g>
		<circle class="st0" cx="133.44" cy="561.29" r="4.94"/>
	</g>
	<g>
		<circle class="st0" cx="154.84" cy="561.29" r="4.94"/>
	</g>
	<g>
		<circle class="st0" cx="176.23" cy="561.29" r="4.94"/>
	</g>
	<g>
		<circle class="st0" cx="197.62" cy="561.29" r="4.94"/>
	</g>
	<g>
		<circle class="st0" cx="219.02" cy="561.29" r="4.94"/>
	</g>
	<g>
		<circle class="st0" cx="240.41" cy="561.29" r="4.94"/>
	</g>
	<g>
		<circle class="st0" cx="261.8" cy="561.29" r="4.94"/>
	</g>
	<g>
		<circle class="st0" cx="283.19" cy="561.29" r="4.94"/>
	</g>
	<g>
		<circle class="st0" cx="304.59" cy="561.29" r="4.94"/>
	</g>
</g>
<g>
	<g>
		<circle class="st0" cx="5.09" cy="582.68" r="4.94"/>
	</g>
	<g>
		<circle class="st0" cx="26.48" cy="582.68" r="4.94"/>
	</g>
	<g>
		<circle class="st0" cx="47.87" cy="582.68" r="4.94"/>
	</g>
	<g>
		<circle class="st0" cx="69.27" cy="582.68" r="4.94"/>
	</g>
	<g>
		<circle class="st0" cx="90.66" cy="582.68" r="4.94"/>
	</g>
	<g>
		<circle class="st0" cx="112.05" cy="582.68" r="4.94"/>
	</g>
	<g>
		<circle class="st0" cx="133.44" cy="582.68" r="4.94"/>
	</g>
	<g>
		<circle class="st0" cx="154.84" cy="582.68" r="4.94"/>
	</g>
	<g>
		<circle class="st0" cx="176.23" cy="582.68" r="4.94"/>
	</g>
	<g>
		<circle class="st0" cx="197.62" cy="582.68" r="4.94"/>
	</g>
	<g>
		<circle class="st0" cx="219.02" cy="582.68" r="4.94"/>
	</g>
	<g>
		<circle class="st0" cx="240.41" cy="582.68" r="4.94"/>
	</g>
	<g>
		<circle class="st0" cx="261.8" cy="582.68" r="4.94"/>
	</g>
	<g>
		<circle class="st0" cx="283.19" cy="582.68" r="4.94"/>
	</g>
	<g>
		<circle class="st0" cx="304.59" cy="582.68" r="4.94"/>
	</g>
</g>
</svg>
