<?xml version="1.0" encoding="utf-8"?>
<!-- Generator: Adobe Illustrator 25.4.1, SVG Export Plug-In . SVG Version: 6.00 Build 0)  -->
<svg version="1.1" id="Layer_1" xmlns="http://www.w3.org/2000/svg" xmlns:xlink="http://www.w3.org/1999/xlink" x="0px" y="0px"
	 viewBox="0 0 123 43" style="enable-background:new 0 0 123 43;" xml:space="preserve">
<style type="text/css">
	.st0{fill:#FFFFFF;}
</style>
<path class="st0" d="M65.2,22v-3.9L61.5,12H64l2.3,3.9l2.3-3.9h2.4l-3.7,6.2V22H65.2z M74.6,22V12h7.5v1.8h-5.3V16h4.8v1.7h-4.8v2.5
	h5.4V22H74.6z M86.1,19v-1.7h4.2V19H86.1z M100.6,12v6.8c0,0.4,0,0.8-0.1,1.1c-0.1,0.4-0.2,0.7-0.5,1.1c-0.2,0.3-0.6,0.6-1,0.8
	c-0.4,0.2-1,0.3-1.7,0.3c-0.4,0-0.8-0.1-1.2-0.2s-0.7-0.3-1.1-0.6c-0.3-0.3-0.6-0.6-0.7-1c-0.2-0.4-0.3-0.9-0.3-1.4v-0.9h2v0.4
	c0,0.5,0.1,1,0.3,1.2c0.2,0.3,0.5,0.4,1,0.4c0.3,0,0.5,0,0.6-0.1c0.2-0.1,0.3-0.2,0.4-0.4c0.1-0.2,0.1-0.3,0.1-0.5
	c0-0.2,0-0.4,0-0.6V12H100.6z M105.2,22V12h2.2v10H105.2z M111.9,22V12h2.2l4.2,6.7h0V12h2.1v10h-2.2l-4.2-6.7h0V22H111.9z"/>
<path class="st0" d="M36.1,10.6l10.6,5.7l10.6-5.7l-5.7,10.6l5.7,10.6l-10.6-5.7l-10.6,5.7l5.7-10.6L36.1,10.6z"/>
<path class="st0" d="M10.6,10.6l10.6,5.7l10.6-5.7l-5.7,10.6l5.7,10.6l-10.6-5.7l-10.6,5.7l5.7-10.6L10.6,10.6z"/>
</svg>
