<?xml version="1.0" encoding="utf-8"?>
<!-- Generator: Adobe Illustrator 25.2.1, SVG Export Plug-In . SVG Version: 6.00 Build 0)  -->
<svg version="1.1" xmlns="http://www.w3.org/2000/svg" xmlns:xlink="http://www.w3.org/1999/xlink" x="0px" y="0px"
	 viewBox="0 0 15.5 20.5" style="enable-background:new 0 0 15.5 20.5;" xml:space="preserve">
<style type="text/css">
	.st0{display:none;}
	.st1{display:inline;}
	.st2{font-family:'Cormorant-Light';}
	.st3{font-size:24px;}
	.st4{enable-background:new    ;}
</style>
<g id="layer1" class="st0">
	<text transform="matrix(1 0 0 1 -0.5485 18.1282)" class="st1 st2 st3">D</text>
</g>
<g id="layer2">
	<g class="st4">
		<path d="M6.6,18.2c-0.4,0-1,0-1.7-0.1c-0.7,0-1.3-0.1-1.8-0.1c-0.5,0-1,0-1.5,0c-0.5,0-0.9,0-1.3,0c0,0,0,0,0-0.1
			c0-0.1,0-0.1,0-0.1c0.6,0,1.1,0,1.4-0.1s0.5-0.2,0.6-0.5c0.1-0.2,0.2-0.6,0.2-1.1V5.1c0-0.5-0.1-0.8-0.2-1C2.2,3.8,2,3.6,1.7,3.5
			C1.4,3.5,0.9,3.4,0.3,3.4c0,0,0,0,0-0.1c0-0.1,0-0.1,0-0.1c0.4,0,0.8,0,1.3,0c0.5,0,1,0,1.5,0c0.5,0,1.1,0,1.6-0.1
			c0.6,0,1.1-0.1,1.5-0.1c1.7,0,3.2,0.3,4.5,1s2.3,1.5,3,2.6c0.7,1.1,1.1,2.3,1.1,3.7c0,1.2-0.2,2.3-0.6,3.3c-0.4,1-1,1.8-1.8,2.5
			c-0.8,0.7-1.6,1.2-2.6,1.6C8.7,18,7.7,18.2,6.6,18.2z M6.3,17.9c1.3,0,2.5-0.3,3.6-0.8c1-0.5,1.8-1.3,2.4-2.4
			c0.6-1,0.9-2.3,0.9-3.8c0-1.4-0.3-2.7-0.8-3.8s-1.3-2-2.3-2.7c-1-0.7-2.2-1-3.6-1c-1,0-1.7,0.1-2.1,0.3S3.7,4.4,3.7,5.1v10.8
			c0,0.7,0.2,1.2,0.5,1.5C4.6,17.8,5.3,17.9,6.3,17.9z"/>
	</g>
</g>
</svg>
