<?xml version="1.0" encoding="utf-8"?>
<!-- Generator: Adobe Illustrator 25.2.1, SVG Export Plug-In . SVG Version: 6.00 Build 0)  -->
<svg version="1.1" xmlns="http://www.w3.org/2000/svg" xmlns:xlink="http://www.w3.org/1999/xlink" x="0px" y="0px"
	 viewBox="0 0 15.1 20.5" style="enable-background:new 0 0 15.1 20.5;" xml:space="preserve">
<style type="text/css">
	.st0{display:none;}
	.st1{display:inline;}
	.st2{font-family:'Cormorant-Light';}
	.st3{font-size:24px;}
	.st4{enable-background:new    ;}
</style>
<g id="layer1" class="st0">
	<text transform="matrix(1 0 0 1 1.0179 18.1282)" class="st1 st2 st3">P</text>
	<text transform="matrix(1 0 0 1 1.0179 18.1282)" class="st1 st2 st3">P</text>
</g>
<g id="layer2">
	<g class="st4">
		<path d="M5.5,16.1c0,0.5,0.1,0.8,0.2,1.1c0.1,0.2,0.4,0.4,0.9,0.5c0.4,0.1,1.1,0.1,1.9,0.1c0,0,0.1,0,0.1,0.1c0,0.1,0,0.1-0.1,0.1
			c-0.5,0-1.1,0-1.7,0c-0.6,0-1.3,0-2,0c-0.5,0-1,0-1.5,0c-0.5,0-0.9,0-1.3,0c0,0,0,0,0-0.1c0-0.1,0-0.1,0-0.1c0.6,0,1.1,0,1.4-0.1
			s0.5-0.2,0.6-0.5c0.1-0.2,0.2-0.6,0.2-1.1V5.1c0-0.5-0.1-0.8-0.2-1C3.9,3.8,3.7,3.6,3.4,3.5S2.7,3.4,2.1,3.4c0,0,0,0,0-0.1
			c0-0.1,0-0.1,0-0.1c0.4,0,0.8,0,1.3,0c0.5,0,1,0,1.5,0c0.4,0,0.9,0,1.5-0.1c0.6,0,1.2-0.1,1.8-0.1c0.9,0,1.7,0.1,2.4,0.4
			c0.7,0.3,1.3,0.7,1.7,1.3c0.4,0.6,0.6,1.3,0.6,2.3c0,0.8-0.2,1.6-0.5,2.2c-0.3,0.6-0.7,1.1-1.3,1.5c-0.5,0.4-1.1,0.7-1.7,0.9
			c-0.6,0.2-1.2,0.3-1.8,0.3c-0.2,0-0.4,0-0.6,0c-0.2,0-0.4,0-0.6-0.1c-0.1,0-0.1-0.1-0.1-0.2c0-0.1,0.1-0.1,0.1-0.1
			c0.1,0,0.3,0.1,0.4,0.1c0.2,0,0.3,0,0.4,0c0.7,0,1.4-0.1,2-0.4s1.1-0.7,1.5-1.3c0.4-0.6,0.6-1.4,0.6-2.3c0-0.9-0.2-1.6-0.5-2.2
			c-0.3-0.6-0.8-1.1-1.4-1.4C9,3.5,8.3,3.4,7.6,3.4c-0.6,0-1,0-1.3,0.1S5.8,3.7,5.7,3.9C5.5,4.1,5.5,4.5,5.5,5.1V16.1z"/>
	</g>
</g>
</svg>
