{
    "asset": {
        "copyright": "2024 (c) Adobe Inc.",
        "generator": "Adobe Substance 3D Stager - 3b65cae5d66550310f3fa94441098965a88f7a29",
        "version": "2.0"
    },
    "accessors": [
        {
            "bufferView": 0,
            "componentType": 5126,
            "count": 22737,
            "type": "VEC3",
            "max": [
                0.08322040736675263,
                0.07807572931051254,
                0.02824508398771286
            ],
            "min": [
                -0.08322040736675263,
                -0.07807572931051254,
                -0.02824508398771286
            ]
        },
        {
            "bufferView": 1,
            "componentType": 5126,
            "count": 22737,
            "type": "VEC3"
        },
        {
            "bufferView": 2,
            "componentType": 5126,
            "count": 22737,
            "type": "VEC2"
        },
        {
            "bufferView": 3,
            "componentType": 5125,
            "count": 105792,
            "type": "SCALAR",
            "max": [
                22736.0
            ],
            "min": [
                0.0
            ]
        }
    ],
    "bufferViews": [
        {
            "buffer": 0,
            "byteOffset": 0,
            "byteLength": 272844,
            "target": 34962
        },
        {
            "buffer": 0,
            "byteOffset": 272844,
            "byteLength": 272844,
            "target": 34962
        },
        {
            "buffer": 0,
            "byteOffset": 545688,
            "byteLength": 181896,
            "target": 34962
        },
        {
            "buffer": 0,
            "byteOffset": 727584,
            "byteLength": 423168,
            "target": 34963
        }
    ],
    "buffers": [
        {
            "byteLength": 1150752,
            "uri": "main-star_binary.bin"
        }
    ],
    "materials": [
        {
            "pbrMetallicRoughness": {
                "roughnessFactor": 0.05000000074505806
            },
            "name": "금속",
            "doubleSided": true,
            "extensions": {
                "KHR_materials_sheen": {
                    "sheenColorFactor": [
                        0.27000001072883608,
                        0.27000001072883608,
                        0.27000001072883608
                    ],
                    "sheenRoughnessFactor": 0.5
                },
                "KHR_materials_specular": {
                    "specularColorFactor": [
                        0.7372200489044188,
                        0.7510700225830078,
                        0.8170290589332581
                    ],
                    "specularFactor": 0.7200000286102295
                }
            }
        }
    ],
    "meshes": [
        {
            "name": "unnamed",
            "primitives": [
                {
                    "attributes": {
                        "POSITION": 0,
                        "NORMAL": 1,
                        "TEXCOORD_0": 2
                    },
                    "indices": 3,
                    "material": 0
                }
            ]
        }
    ],
    "nodes": [
        {
            "name": "working_cam_n3d"
        },
        {
            "translation": [
                0.0,
                0.6099665760993958,
                0.0
            ],
            "scale": [
                7.812498569488525,
                7.812499046325684,
                4.999999523162842
            ],
            "mesh": 0,
            "name": "unnamed"
        }
    ],
    "scenes": [
        {
            "nodes": [
                1
            ],
            "name": "scene"
        }
    ],
    "scene": 0,
    "extensionsUsed": [
        "KHR_materials_specular",
        "KHR_materials_sheen"
    ]
}