<svg width="123" height="43" viewBox="0 0 123 43" fill="none" xmlns="http://www.w3.org/2000/svg">
<path d="M65.2048 22V18.108L61.5228 12.004H64.0008L66.3388 15.952L68.6628 12.004H71.1128L67.4028 18.164V22H65.2048ZM74.6127 22V12.004H82.0887V13.852H76.8107V15.994H81.6547V17.702H76.8107V20.152H82.2007V22H74.6127ZM86.1268 19.032V17.324H90.3408V19.032H86.1268ZM100.564 12.004V18.85C100.564 19.242 100.522 19.6247 100.438 19.998C100.363 20.3713 100.209 20.7307 99.976 21.076C99.752 21.412 99.4114 21.692 98.954 21.916C98.506 22.1307 97.932 22.238 97.232 22.238C96.8027 22.238 96.392 22.1773 96 22.056C95.608 21.9347 95.2534 21.748 94.936 21.496C94.628 21.244 94.3854 20.922 94.208 20.53C94.0307 20.1287 93.942 19.6667 93.942 19.144V18.276H95.93V18.724C95.93 19.2653 96.0187 19.6807 96.196 19.97C96.3827 20.25 96.7187 20.39 97.204 20.39C97.4747 20.39 97.6894 20.3433 97.848 20.25C98.016 20.1473 98.1374 20.0167 98.212 19.858C98.2867 19.6993 98.3287 19.536 98.338 19.368C98.3567 19.2 98.366 18.9947 98.366 18.752V12.004H100.564ZM105.151 22V12.004H107.349V22H105.151ZM111.94 22V12.004H114.124L118.296 18.71H118.324V12.004H120.382V22H118.184L114.026 15.308H113.998V22H111.94Z" fill="black"/>
<path d="M36.1296 10.6003L46.7299 16.3285L57.3302 10.6003L51.602 21.2006L57.3302 31.8009L46.7299 26.0727L36.1296 31.8009L41.8578 21.2006L36.1296 10.6003Z" fill="black"/>
<path d="M10.6003 10.6003L21.2006 16.3285L31.8009 10.6003L26.0727 21.2006L31.8009 31.8009L21.2006 26.0727L10.6003 31.8009L16.3285 21.2006L10.6003 10.6003Z" fill="black"/>
</svg>
